<svg xmlns="http://www.w3.org/2000/svg" xmlns:xlink="http://www.w3.org/1999/xlink" width="155" height="135" viewBox="0 0 155 135">
    <defs>
        <path id="prefix__a" d="M0 0H156V136H0z"/>
        <path id="prefix__c" d="M0 34.592L34.592 34.592 34.592 0 0 0z"/>
    </defs>
    <g fill="none" fill-rule="evenodd" transform="translate(0 -1)">
        <mask id="prefix__b" fill="#fff">
            <use xlink:href="#prefix__a"/>
        </mask>
        <g mask="url(#prefix__b)">
            <g>
                <g>
                    <g>
                        <g transform="translate(0 86) translate(0 .18) translate(16.12 2.75) translate(85.635 7.052)">
                            <path stroke="#7C7C7C" stroke-linecap="round" stroke-linejoin="round" stroke-width="1.159" d="M26.673 14.17L32.925 14.17 32.925 34.175 1.667 34.175 1.667 14.17 7.918 14.17"/>
                            <path stroke="#7C7C7C" stroke-linecap="round" stroke-linejoin="round" stroke-width="1.159" d="M24.173 34.175L10.419 34.175 10.419 11.669 17.296 7.919 24.173 11.669z"/>
                            <path stroke="#7C7C7C" stroke-linecap="round" stroke-linejoin="round" stroke-width="1.159" d="M19.172 14.795c0 1.036-.84 1.876-1.876 1.876s-1.876-.84-1.876-1.876c0-1.035.84-1.875 1.876-1.875s1.876.84 1.876 1.875zM17.296 7.919L17.296.417"/>
                            <mask id="prefix__d" fill="#fff">
                                <use xlink:href="#prefix__c"/>
                            </mask>
                            <path stroke="#7C7C7C" stroke-linecap="round" stroke-linejoin="round" stroke-width="1.159" d="M17.296 4.168L21.672 4.168 21.672 1.667 17.296 1.667zM14.17 31.675L20.422 31.675 20.422 25.423 14.17 25.423zM12.92 34.175L21.672 34.175 21.672 31.675 12.92 31.675zM1.667 17.921L7.919 17.921M26.673 17.921L32.925 17.921M17.296 25.423L17.296 31.675M.417 34.175L34.175 34.175" mask="url(#prefix__d)"/>
                        </g>
                        <g stroke="#7C7C7C" stroke-linecap="round" stroke-linejoin="round" stroke-width="1.13">
                            <path d="M10.267 45.872L35.699 45.872 35.699 8.572 10.267 8.572zM.094 45.872L45.872 45.872M6.876 34.004c0 1.872-1.518 3.39-3.39 3.39-1.874 0-3.392-1.518-3.392-3.39 0-1.873 1.518-3.391 3.391-3.391s3.391 1.518 3.391 3.39zM3.485 45.872L3.485 37.394M45.872 34.004c0 1.872-1.519 3.39-3.391 3.39-1.873 0-3.391-1.518-3.391-3.39 0-1.873 1.518-3.391 3.39-3.391 1.873 0 3.392 1.518 3.392 3.39zM42.481 45.872L42.481 37.394" transform="translate(0 86) translate(0 .18) translate(16.12 2.75) translate(37.276)"/>
                            <path d="M18.744 45.872L27.222 45.872 27.222 34.004 18.744 34.004zM13.658 28.917L32.308 28.917M13.658 23.831L32.308 23.831M13.658 18.744L32.308 18.744M13.658 13.658L32.308 13.658M18.744 8.572L27.222 8.572 27.222 3.485 18.744 3.485zM23.407 0L23.407 3.39" transform="translate(0 86) translate(0 .18) translate(16.12 2.75) translate(37.276)"/>
                        </g>
                        <g stroke="#7C7C7C" stroke-linecap="round" stroke-linejoin="round" stroke-width="1.007">
                            <path d="M.418 33.986L34.3 33.986 34.3 31.902.418 31.902zM2.928 31.902L31.79 31.902 31.79 29.818 2.928 29.818zM30.535 22.967L30.535 29.818 4.183 29.818 4.183 12.691M4.183 12.101L4.183 10.017 30.535 10.017 30.535 22.523M10.457 10.017L24.261 10.017 24.261 7.932 10.457 7.932zM23.006 7.932L11.712 7.932 11.712 5.848 17.359 4.284 23.006 5.848z" transform="translate(0 86) translate(0 .18) translate(16.12 2.75) translate(0 7.052)"/>
                            <g>
                                <path d="M17.359 2.547L21.751 2.547 21.751.463 17.987.463 17.359.463 17.359 4.111M17.36 21.307h0c-2.427 0-4.393 1.633-4.393 3.648v4.69h8.784v-4.69c0-2.015-1.966-3.648-4.392-3.648zM6.693 14.012L9.202 14.012 9.202 11.927 6.693 11.927zM25.516 14.012L28.026 14.012 28.026 11.927 25.516 11.927zM19.241 14.012L21.751 14.012 21.751 11.927 19.241 11.927zM12.967 14.012L15.477 14.012 15.477 11.927 12.967 11.927zM6.693 18.18L9.202 18.18 9.202 16.096 6.693 16.096zM25.516 18.18L28.026 18.18 28.026 16.096 25.516 16.096zM19.241 18.18L21.751 18.18 21.751 16.096 19.241 16.096zM12.967 18.18L15.477 18.18 15.477 16.096 12.967 16.096zM6.693 22.349L9.202 22.349 9.202 20.265 6.693 20.265zM25.516 22.349L28.026 22.349 28.026 20.265 25.516 20.265z" transform="translate(0 86) translate(0 .18) translate(16.12 2.75) translate(0 7.052) translate(0 .174)"/>
                            </g>
                        </g>
                    </g>
                </g>
                <g stroke="#7C7C7C" stroke-linecap="round" stroke-linejoin="round" stroke-width="1.049">
                    <g>
                        <path d="M0 24.728L11.779 24.728 17.399 24.728 17.399 22.897 11.848 22.897 0 22.897" transform="translate(0 86) translate(1.07) matrix(-1 0 0 1 153.01 0) rotate(-180 8.7 23.812)"/>
                        <path d="M0.876 22.897L15.769 22.897 15.769 0 0.876 0z" transform="translate(0 86) translate(1.07) matrix(-1 0 0 1 153.01 0)"/>
                        <path d="M15.769 2.877L15.769 22.897 22.777 22.897 22.777 1.832 21.935 1.831" transform="translate(0 86) translate(1.07) matrix(-1 0 0 1 153.01 0) rotate(-180 19.273 12.364)"/>
                        <path d="M17.521 7.327L21.025 7.327 21.025 3.663 17.521 3.663zM17.521 12.822L21.025 12.822 21.025 9.159 17.521 9.159zM2.628 6.411L6.132 6.411 6.132 2.748 2.628 2.748zM2.628 12.822L6.132 12.822 6.132 9.159 2.628 9.159zM10.512 6.411L14.017 6.411 14.017 2.748 10.512 2.748zM10.512 12.822L14.017 12.822 14.017 9.159 10.512 9.159zM8.322 2.748L8.322 22.897" transform="translate(0 86) translate(1.07) matrix(-1 0 0 1 153.01 0)"/>
                    </g>
                    <g>
                        <path d="M10.7 23.698L9.92 23.698 16.784 23.698 16.784 21.943 10.004 21.943 0 21.943" transform="translate(0 86) translate(1.07) translate(.098 .098) rotate(-180 8.392 22.82)"/>
                        <path d="M0.878 21.942L15.799 21.942 15.799 0 0.878 0z" transform="translate(0 86) translate(1.07) translate(.098 .098)"/>
                        <path d="M15.799 5.835L15.799 21.942 22.82 21.942 22.82 1.755 21.835 1.755" transform="translate(0 86) translate(1.07) translate(.098 .098) rotate(-180 19.31 11.849)"/>
                        <path d="M17.554 7.022L21.065 7.022 21.065 3.511 17.554 3.511zM17.554 12.288L21.065 12.288 21.065 8.777 17.554 8.777zM2.633 6.144L6.144 6.144 6.144 2.633 2.633 2.633zM2.633 12.288L6.144 12.288 6.144 8.777 2.633 8.777zM10.532 6.144L14.043 6.144 14.043 2.633 10.532 2.633zM10.532 12.288L14.043 12.288 14.043 8.777 10.532 8.777zM8.338 2.633L8.338 21.943" transform="translate(0 86) translate(1.07) translate(.098 .098)"/>
                    </g>
                </g>
            </g>
        </g>
        <g>
            <path fill="#7C7C7C" d="M16.476 16.657L15.36 12.303 16.612 11.243 17.914 17.204 19.945 19.6 18.809 20.563 16.779 18.166 11.108 15.905 12.365 14.841zM24.776 10.94c-.483-.812-1.008-1.343-1.573-1.593s-1.13-.207-1.693.128c-.55.328-.852.8-.906 1.416-.054.616.15 1.321.614 2.113l.252.423c.48.806 1.008 1.335 1.583 1.588.576.253 1.142.213 1.7-.119.563-.336.869-.809.917-1.419.048-.61-.174-1.329-.666-2.155l-.228-.382zm1.5-.376c.43.718.68 1.422.755 2.112.075.69-.032 1.318-.321 1.883-.288.565-.733 1.027-1.334 1.384-.594.354-1.21.524-1.848.511-.637-.014-1.243-.213-1.816-.599-.573-.387-1.07-.929-1.491-1.629l-.246-.412c-.426-.715-.675-1.422-.748-2.12-.072-.697.036-1.329.324-1.894.289-.566.732-1.026 1.329-1.382.598-.355 1.212-.527 1.845-.516.632.013 1.235.213 1.807.602.573.39 1.074.94 1.503 1.652l.242.408zM32.218 3.38l2.023 5.332c.321.847.305 1.62-.05 2.32-.354.702-.983 1.224-1.885 1.566-.913.346-1.73.378-2.452.094-.722-.284-1.247-.86-1.575-1.724l-2.02-5.325 1.38-.524 2.024 5.336c.202.533.492.889.87 1.068.376.178.828.168 1.353-.032 1.067-.404 1.387-1.17.96-2.294l-2.008-5.292 1.38-.524zM37.02 6.358l1.495-.3c.49-.096.849-.297 1.075-.6.226-.301.297-.667.21-1.096-.09-.448-.285-.77-.59-.963-.303-.194-.71-.245-1.215-.151l-1.535.306.56 2.804zm1.856.848l-1.62.324.643 3.218-1.453.29-1.674-8.365 2.942-.588c.965-.193 1.754-.126 2.365.202.61.329.999.903 1.163 1.723.112.56.07 1.056-.123 1.487-.195.432-.513.798-.955 1.097l2.575 3.108.015.075-1.557.31-2.321-2.881zM50.878 7.49c.01-.374-.113-.666-.37-.877-.26-.21-.73-.43-1.41-.655-.682-.227-1.222-.473-1.62-.738-.764-.51-1.134-1.158-1.112-1.942.02-.688.316-1.246.888-1.675.574-.43 1.307-.632 2.201-.606.594.017 1.12.14 1.58.373.456.232.814.554 1.068.965.254.412.373.864.36 1.356l-1.478-.042c.014-.445-.117-.798-.388-1.057-.272-.26-.668-.397-1.187-.412-.484-.014-.863.079-1.136.278-.273.2-.416.485-.426.856-.009.312.128.577.411.794.283.217.754.434 1.412.65.658.215 1.186.455 1.58.718.395.264.682.56.86.892.177.332.261.716.247 1.153-.019.71-.308 1.269-.865 1.673-.556.404-1.3.593-2.234.567-.617-.018-1.18-.148-1.692-.391-.51-.243-.903-.57-1.179-.981-.276-.41-.406-.882-.39-1.418l1.481.042c-.014.485.136.864.448 1.139.313.275.768.42 1.365.437.516.015.906-.078 1.172-.28.266-.202.404-.474.414-.818M60.218 8.382c-.26.876-.726 1.508-1.398 1.896-.674.387-1.488.487-2.442.299-.667-.131-1.223-.404-1.67-.82-.445-.416-.749-.942-.91-1.58-.162-.636-.173-1.34-.033-2.113l.153-.782c.155-.79.432-1.458.83-2.005.398-.547.891-.932 1.478-1.155.587-.223 1.223-.267 1.91-.133.924.182 1.618.578 2.083 1.189.466.61.654 1.383.566 2.318l-1.449-.285c.05-.615-.04-1.084-.27-1.406-.23-.321-.617-.536-1.16-.642-.633-.125-1.165.01-1.594.407-.43.395-.737 1.04-.92 1.932l-.146.742c-.177.906-.15 1.628.08 2.168.23.539.658.87 1.282.992.571.113 1.026.069 1.364-.132.338-.2.603-.592.798-1.175l1.448.285zM67.205 9.125c.34-.882.435-1.622.282-2.22-.152-.6-.535-1.017-1.147-1.253-.598-.23-1.156-.176-1.673.162-.518.34-.945.935-1.283 1.79l-.177.458c-.337.875-.427 1.616-.27 2.225.157.61.538 1.03 1.142 1.263.613.236 1.174.184 1.684-.155.51-.339.937-.958 1.282-1.854l.16-.416zm1.224.95c-.3.78-.7 1.411-1.196 1.896-.497.485-1.056.788-1.679.91-.622.122-1.26.058-1.912-.193-.646-.249-1.16-.628-1.543-1.138-.384-.51-.6-1.11-.65-1.799-.052-.689.068-1.415.358-2.179l.172-.448c.3-.776.702-1.409 1.205-1.896.504-.489 1.068-.794 1.691-.916s1.26-.058 1.907.192c.65.25 1.164.627 1.545 1.132.381.505.596 1.102.644 1.793.047.69-.077 1.424-.37 2.202l-.172.443zM71.547 11.312l1.31.78c.427.257.828.348 1.198.276.371-.072.668-.296.892-.672.235-.392.304-.762.21-1.11-.095-.348-.363-.657-.8-.928l-1.345-.802-1.465 2.456zm.807 1.873l-1.419-.847-1.682 2.818-1.272-.76 4.371-7.326 2.576 1.537c.846.505 1.385 1.084 1.618 1.737.232.654.135 1.34-.294 2.058-.292.491-.655.83-1.089 1.02-.433.19-.915.247-1.444.173l-.175 4.033-.039.065-1.363-.814.212-3.694zM80.344 18.456L77.651 16.215 75.972 18.233 79.12 20.852 78.363 21.762 74.075 18.194 79.532 11.637 83.788 15.178 83.024 16.097 79.907 13.503 78.401 15.314 81.094 17.555z" transform="translate(30)"/>
            <path stroke="#7C7C7C" stroke-linecap="round" stroke-width="1.12" d="M87.948 27.018c5.302 7.666 8.405 16.95 8.405 26.953 0 7.62-1.801 14.825-5.005 21.214-3.372 6.725-8.297 12.547-14.311 17.004M8.762 27.018C3.46 34.684.357 43.968.357 53.971c0 7.62 1.801 14.825 5.005 21.214 3.372 6.725 8.297 12.547 14.311 17.004" transform="translate(30)"/>
        </g>
    </g>
</svg>